<svg xmlns="http://www.w3.org/2000/svg" width="130" height="130" viewBox="0 0 130 130">
    <g fill="none" fill-rule="evenodd">
        <g>
            <g transform="translate(-616 -119) translate(616 119)">
                <circle cx="65" cy="65" r="65" fill="#2C3447"/>
                <g fill="#FFF">
                    <path d="M72.894 41.511V20.068h12.889V10.68H72.894V0L60.008.739v9.94h-6.53v9.389h6.533V47.04c0 8.459 5.061 12.883 14.542 12.883 3.131 0 6.445-.645 11.23-2.298l.459-9.116c-2.392.92-4.51 1.469-6.256 1.469-5.345 0-7.092-1.653-7.092-8.467M22.362 35.986c-6.436 0-10.21-3.127-10.21-8.191 0-6.35 5.062-8.835 10.675-8.835 5.805 0 10.313 3.318 10.313 8.38-.008 4.23-2.762 8.646-10.778 8.646m-.727-26.41C8.467 9.576 0 16.665 0 27.795c0 6.997 2.945 12.98 12.057 15.926v.184c-4.7.825-9.3 3.219-9.3 8.007 0 4.42 1.954 5.885 6.54 7.182 4.582 1.297 16.897 1.95 21.066 2.49 10.984 1.442 3.162 11.626 3.162 11.626h12.363c1.768-2.81 2.53-5.764 2.53-8.231 0-8.279-4.604-11.778-12.891-12.7l-15.918-1.753c-2.395-.272-3.412-.916-3.412-2.57 0-1.473 1.57-2.578 3.136-2.578h4.599c10.674 0 20.25-5.244 20.25-16.566 0-4.148-1.658-7.457-3.132-9.302h8.29v-8.835H31.754c-3.314-.554-6.166-1.099-10.12-1.099" transform="translate(22 32)"/>
                </g>
            </g>
        </g>
    </g>
</svg>
